PathFileType	4	(X/Y/Z)	Patient4_TMGait_0pt5_02_right_06.trc.trc
DataRate	CameraRate	NumFrames	NumMarkers	Units	OrigDataRate	OrigDataStartFrame	OrigNumFrames
74.468085106383	74.468085106383	5	33	mm	74.468085106383	1	       141
Frame#	Time	Sacral			L.Shoulder			Chest			R.Shoulder			Neck			R.ASIS			L.ASIS			R.Thigh.Superior			R.Thigh.Lateral			R.Thigh.Inferior			R.Patella			L.Thigh.Superior			L.Thigh.Lateral			L.Thigh.Inferior			L.Patella			L.Shank.Superior			L.Shank.Lateral			L.Shank.Inferior			R.Shank.Superior			R.Shank.Lateral			R.Shank.Inferior			R.Heel			R.Midfoot.Superior			R.Midfoot.Lateral			R.Toe			L.Heel			L.Midfoot.Lateral			L.Midfoot.Superior			L.Toe			L.Elbow			L.Wrist			R.Elbow			R.Wrist			
		X1	Y1	Z1	X2	Y2	Z2	X3	Y3	Z3	X4	Y4	Z4	X5	Y5	Z5	X6	Y6	Z6	X7	Y7	Z7	X8	Y8	Z8	X9	Y9	Z9	X10	Y10	Z10	X11	Y11	Z11	X12	Y12	Z12	X13	Y13	Z13	X14	Y14	Z14	X15	Y15	Z15	X16	Y16	Z16	X17	Y17	Z17	X18	Y18	Z18	X19	Y19	Z19	X20	Y20	Z20	X21	Y21	Z21	X22	Y22	Z22	X23	Y23	Z23	X24	Y24	Z24	X25	Y25	Z25	X26	Y26	Z26	X27	Y27	Z27	X28	Y28	Z28	X29	Y29	Z29	X30	Y30	Z30	X31	Y31	Z31	X32	Y32	Z32	X33	Y33	Z33	

1	7.800000000000	550.827263260046	1014.678026398047	448.738480934177	735.854906133376	1436.908362117172	262.264072993690	839.346130873335	1362.940485726268	421.327645837687	762.725351420886	1441.749871099609	596.984696507297	741.136669245269	1498.007288042066	412.399334012629	778.353652764847	944.901252385792	563.609778060834	761.024581167223	961.463162713545	288.794021315305	845.116589021171	762.935278757736	539.061680977209	790.856094312232	645.190217537429	609.773237047071	879.598504712042	598.126529341945	534.655712426340	885.802647445541	483.163703282019	556.541270207643	808.289783030370	752.633128497154	317.002306972293	716.357002055700	637.318113465054	266.815391062935	800.892602703850	559.986265404296	329.862522002001	801.089440533342	490.090657661073	342.419554144860	775.328639405538	419.037448838404	337.002811842443	687.768027872210	302.170421407746	290.712534898610	739.009637962380	194.312351637356	365.867340581953	803.487086474663	415.266550045909	560.322526275922	678.737306086511	386.413785492871	619.109642439297	653.191787496470	280.976428109270	568.290468035840	446.102713200184	243.023550190832	540.815298817510	607.942275691375	164.121835940106	575.965839517787	498.349559471569	172.833598580380	610.249990013074	660.615089224551	44.613966699687	596.613690779056	610.788386666060	38.579606965060	412.737660095329	684.972547980083	35.310051706897	332.329640620792	768.791372338096	95.791287835143	358.058830019107	896.993975923004	41.243457507776	331.339603448609	695.117410108467	1092.722747040665	123.721276367981	866.878912641321	894.510052889677	114.232242411331	738.396407002614	1092.971285283676	713.810132337077	849.786786648509	856.106913627172	722.621446273416	
2	7.813428571429	549.933637050257	1015.373077999317	447.433707010340	737.785249154724	1437.307288676710	261.543708099055	839.497498778013	1363.113274912814	421.598784652215	761.461761211439	1442.151051352001	596.442395319401	741.533716297926	1498.465404636087	411.704225314789	776.394241294535	945.651363484448	563.006786897341	760.800126501847	961.908615318242	288.462557661665	846.660005564067	767.144606455390	538.511183292035	795.434802354760	648.772387387239	609.827866593979	884.868672821894	603.253867608569	534.443534576830	894.115352828486	488.847261122696	556.560977877484	805.198245586639	751.787421032687	317.006448478470	711.877335415834	637.653370165991	266.319122432848	795.099315657048	559.327614972751	329.476989334857	794.375421934950	489.820280465455	341.985424530489	768.718714025978	419.060039164792	336.493742530875	680.763960754001	302.373050608817	290.283805422147	731.971985669175	194.401627806460	365.512943085819	814.102346389134	418.722870763725	560.350590864131	690.710969459448	385.437563272075	619.242718906652	668.991187449525	279.225901187127	568.367407278938	463.695287579335	233.359447484850	540.945534613618	628.207339896461	160.988931162689	575.907782509297	518.644031248999	165.585622739226	610.544266952415	685.464674770695	43.836270595261	597.000879939022	603.548526308311	38.672513129021	412.653803966959	677.813584137454	35.283985374991	332.283183310667	761.656364661021	95.786425117671	357.890552424076	889.823775762696	41.244449067364	331.293503275702	703.513604904545	1093.805901005386	120.793923754391	882.217017727031	902.739647205087	111.449021506821	727.074089594414	1095.509099270240	714.464321051798	823.264820092123	853.608032875399	724.228160113847	
3	7.826857142857	549.060560688983	1016.017704564888	446.187234980009	739.675454331927	1437.667125418423	260.856713684824	839.636527661232	1363.262054406689	421.889241485252	760.199182294320	1442.527938722845	595.926927264976	741.914861158362	1498.889564248340	411.037940388842	774.495970338055	946.378582627566	562.469879181833	760.661827218639	962.354992070199	288.133784633675	848.106328083028	771.226827607299	537.992141577876	799.875979048089	652.242104734921	609.898652892229	889.922011464996	608.234952589856	534.213774852812	902.160414930076	494.446223743088	556.578475822460	802.149225570239	750.941931724366	317.026855082252	707.468304604983	637.968191733131	265.846997197130	789.401301625972	558.666610271162	329.107604640351	787.753590429736	489.531786401822	341.581736040791	762.196988960120	419.061004610203	336.011444282054	673.844536169651	302.567115526277	289.875167374487	724.994691389435	194.477693432202	365.174635833338	824.537055467168	422.078138744472	560.403309292649	702.599538642125	384.245268774227	619.427464911113	684.832980560833	277.259490824214	568.522036955681	481.468100395063	223.267282398882	541.206452304039	648.653561460454	157.654772364572	575.964910908179	539.168438130282	158.026438295346	610.976163731754	710.600258780018	42.983375384841	597.506747923287	596.352631852849	38.761818586258	412.574460313821	670.695171988836	35.259774923149	332.238482771389	754.560790724976	95.780613831031	357.730586898742	882.695935310296	41.242588486711	331.249380308268	711.802287828905	1094.863263823434	117.954623061902	897.366735764010	910.970356870693	108.771496851587	715.773036928644	1098.050098812638	715.072409863361	797.022273085230	851.372528703790	725.689596562665	
4	7.840285714286	548.224678231415	1016.572089243854	445.051795586844	741.485532605523	1437.950694956635	260.245364956100	839.756422503674	1363.361512630927	422.222802288034	758.952826254547	1442.855557285961	595.473774689783	742.270989989894	1499.245993761507	410.439210379703	772.716998459576	947.049574769535	562.059856962033	760.645002279298	962.784144374397	287.832191105485	849.340490301639	775.016477238914	537.544469484107	803.980242400989	655.458043219144	610.013415207181	894.493413866576	612.873856659595	533.971313431799	909.614045908114	499.834208327610	556.598773575869	799.188403616515	750.095172634524	317.085670487044	703.195503724958	638.244806556436	265.425177559110	783.880640569480	558.001449750048	328.776572545734	781.319739852536	489.217851615685	341.233569568022	755.841839975945	419.024198624007	335.583931095312	667.089394944083	302.744367605476	289.506325024718	718.137688915863	194.529912833921	364.870574196821	834.553192360662	425.229940117216	560.510892894404	714.297015843800	382.659663224458	619.722528135088	700.720210919523	274.948819248894	568.820215702476	499.628016205497	212.472462755912	541.696677135995	669.410902557522	154.046502099826	576.231766162056	560.139134651503	149.993033563188	611.652529888236	736.205717065590	42.130740051373	598.220523918296	589.251155185084	38.843612759626	412.503805385530	663.663096435350	35.238526057492	332.197769635304	747.550150902901	95.773094253866	357.587079666349	875.657266918235	41.236923077585	331.209163977569	719.850920921139	1095.865237614581	115.307107855176	912.084018503151	919.176135874268	106.321968402829	704.562877697321	1100.603116580374	715.581671064551	771.427675027491	849.647081395777	726.878301580099	
5	7.853714285714	547.435899886233	1017.007513535920	444.066567985997	743.186131568723	1438.126165381582	259.747018940463	839.853666793674	1363.389431964954	422.622434830207	757.736763345117	1443.113246973590	595.114507525827	742.598908973884	1499.506268403625	409.942454732234	771.092522267132	947.631004191818	561.819068952887	760.767869974765	963.175467409155	287.581484088134	850.262030539935	778.367470226909	537.203115414179	807.564517406060	658.297810678233	610.195766796173	898.351907943033	616.996057285043	533.725186431700	916.201714637670	504.903202498756	556.623655960571	796.348107841871	749.241855176198	317.203807549829	699.099358688402	638.468478006345	265.076529957496	778.585187054525	557.327183280946	328.505274179072	775.128121483929	488.869899508442	340.964994433676	749.695173975734	418.935461850989	335.236535161875	660.541777773776	302.897557149401	289.194405446098	711.427923020071	194.549376558988	364.618019359373	843.960538142073	428.099225126043	560.699442327862	725.750889320786	380.538163752584	620.183068949210	716.702257484898	272.212509124080	569.317378326036	518.441898335188	200.762477327686	542.493264138680	690.653476310362	150.147506838131	576.786350032568	581.821548587868	141.382322928244	612.655848873879	762.495876237503	41.412744362750	599.218826612523	582.262783849265	38.914043848124	412.444964275246	656.731631349497	35.220593673934	332.163115077967	740.638663098847	95.763254696057	357.467042696689	868.722868731299	41.227922822155	331.174353932001	727.567505654225	1096.786911451178	112.935319203700	926.192972564842	927.353109501352	104.202395962885	693.478219803212	1103.190188266767	715.945760202076	746.732015328038	848.625738909493	727.705016086309	
